<svg width="34" height="34" viewBox="0 0 34 34" fill="none" xmlns="http://www.w3.org/2000/svg">
<path d="M23 11V18.5C23 19.6935 23.4741 20.8381 24.318 21.682C25.1619 22.5259 26.3065 23 27.5 23C28.6935 23 29.8381 22.5259 30.682 21.682C31.5259 20.8381 32 19.6935 32 18.5V17C31.9998 13.6146 30.8543 10.3288 28.7499 7.67684C26.6455 5.02492 23.7058 3.16288 20.4089 2.39349C17.1121 1.6241 13.6519 1.99261 10.591 3.4391C7.53013 4.88558 5.04858 7.32498 3.54987 10.3606C2.05116 13.3963 1.62343 16.8497 2.33624 20.1592C3.04904 23.4688 4.86045 26.4399 7.47593 28.5894C10.0914 30.739 13.3571 31.9406 16.7421 31.9988C20.127 32.057 23.4321 30.9684 26.12 28.91M23 17C23 20.3138 20.3137 23 17 23C13.6863 23 11 20.3138 11 17C11 13.6863 13.6863 11 17 11C20.3137 11 23 13.6863 23 17Z" stroke="#1A75FF" stroke-width="3" stroke-linecap="round" stroke-linejoin="round"/>
</svg>
