<svg width="45" height="45" viewBox="0 0 45 45" fill="none" xmlns="http://www.w3.org/2000/svg">
<path fill-rule="evenodd" clip-rule="evenodd" d="M37.9884 34.6612C40.6784 31.2341 42.1557 27.0116 42.1888 22.6549C42.2219 18.2983 40.8089 14.0538 38.1712 10.5862C36.2253 8.02616 33.6819 5.98172 30.7634 4.63162C27.8448 3.28152 24.64 2.66687 21.4291 2.8414C18.2181 3.01593 15.0988 3.97433 12.3438 5.63282C9.5888 7.29131 7.28198 9.59939 5.625 12.3553V5.62499H2.8125V15.4687L4.21875 16.875H14.0625V14.0625H7.90594C9.78479 10.8144 12.6913 8.28404 16.1673 6.8705C19.6433 5.45696 23.4908 5.24063 27.1033 6.25562C30.7158 7.27061 33.8877 9.45918 36.1188 12.4762C38.3499 15.4932 39.5133 19.1671 39.4256 22.9185C39.3378 26.6698 38.0038 30.2852 35.6341 33.1946C33.2643 36.104 29.9935 38.1418 26.3375 38.9868C22.6815 39.8317 18.8483 39.4357 15.4422 37.8611C12.0362 36.2865 9.25113 33.6231 7.52625 30.2906L5.03156 31.59C6.55067 34.5119 8.77848 37.0061 11.511 38.8442C14.2436 40.6823 17.3936 41.8056 20.6726 42.1111C23.9517 42.4167 27.255 41.8948 30.2801 40.5933C33.3053 39.2918 35.9556 37.2522 37.9884 34.6612ZM28.5356 31.9331L30.5269 29.9447L22.5 21.915V11.25H19.6875V22.5L20.0981 23.4956L28.5356 31.9331Z" fill="#BFBFBF"/>
</svg>
